#!OML:ASF H:\Dans Jumps\Project 1\Capture day 1\Session 1\subject.ASF
:FULLY-SPECIFIED
:DEGREES
322
root 0.623405 21.7576 -7.16968 9.98942 0.082755 -0.790616
lowerback 7.64182 -1.33699 -1.85564
upperback 4.10248 -1.87614 2.25286
thorax 0.0950108 -0.991345 3.50501
lowerneck -10.2926 0.826024 -1.26967
upperneck 28.8307 1.65506 -0.816523
head 10.9836 0.505953 0.124441
rclavicle -3.37934e-014 2.26615e-014
rhumerus -21.5206 -12.8609 -82.4175
rradius 24.7909
rwrist 33.5929
rhand -18.7948 -25.9499
rfingers 7.12502
rthumb 7.50319 -55.7968
lclavicle -3.37934e-014 2.26615e-014
lhumerus -14.0078 -3.20603 89.6557
lradius 18.9059
lwrist 13.385
lhand -25.6107 -7.22926
lfingers 7.12502
lthumb 0.921737 22.7485
rfemur -32.7715 -4.34606 19.353
rtibia 32.9877
rfoot 14.3427 -4.36959
rtoes 14.2035
lfemur -32.7915 8.6176 -19.8392
ltibia 22.612
lfoot 19.2694 -0.272813
ltoes 0.441304
323
root 0.628727 21.6713 -7.02957 9.8761 -0.10363 -0.767458
lowerback 7.57529 -1.30494 -1.85444
upperback 4.14847 -1.83399 2.21394
thorax 0.174684 -0.971693 3.45819
lowerneck -10.1928 0.836739 -1.21743
upperneck 28.9478 1.66712 -0.849738
head 11.009 0.511908 0.104404
rclavicle 1.40143e-014 0
rhumerus -21.7989 -13.2574 -82.3101
rradius 24.4117
rwrist 33.8715
rhand -18.7549 -25.9483
rfingers 7.12502
rthumb 7.5417 -55.7938
lclavicle 1.40143e-014 0
lhumerus -14.172 -2.58524 89.606
lradius 18.4586
lwrist 12.7986
lhand -25.4654 -7.0711
lfingers 7.12502
lthumb 1.0621 22.906
rfemur -32.8777 -4.29344 19.3132
rtibia 31.6588
rfoot 14.5389 -4.11757
rtoes 13.3861
lfemur -32.7114 8.66222 -19.8733
ltibia 21.5784
lfoot 19.4224 -0.228941
ltoes -0.240528
324
root 0.635311 21.5717 -6.88248 9.72344 -0.284613 -0.738718
lowerback 7.42724 -1.28705 -1.83342
upperback 4.20088 -1.80885 2.17065
thorax 0.306451 -0.960984 3.39442
lowerneck -10.0543 0.850034 -1.19121
upperneck 29.1004 1.68673 -0.87751
head 11.04 0.518844 0.091538
rclavicle -5.76476e-015 -1.19271e-015
rhumerus -22.0632 -13.6078 -82.2081
rradius 24.0042
rwrist 34.2079
rhand -18.7443 -25.9369
rfingers 7.12502
rthumb 7.55197 -55.782
lclavicle -5.76476e-015 -1.19271e-015
lhumerus -14.331 -1.9042 89.526
lradius 17.985
lwrist 12.1739
lhand -25.2936 -6.98734
lfingers 7.12502
lthumb 1.228 22.9889
rfemur -32.8567 -4.24069 19.2462
rtibia 30.3039
rfoot 14.8221 -3.82765
rtoes 12.5786
lfemur -32.4999 8.70875 -19.901
ltibia 20.6058
lfoot 19.687 -0.182462
ltoes -0.824467
325
root 0.642915 21.459 -6.72854 9.52909 -0.452319 -0.709852
lowerback 7.2042 -1.28579 -1.78966
upperback 4.25518 -1.80389 2.12833
thorax 0.48238 -0.960548 3.31808
lowerneck -9.87399 0.866436 -1.20282
upperneck 29.2889 1.71557 -0.894742
head 11.076 0.526826 0.0899222
rclavicle -8.24956e-015 -4.77083e-015
rhumerus -22.3155 -13.8965 -82.1094
rradius 23.5742
rwrist 34.62
rhand -18.7514 -25.9329
rfingers 7.12502
rthumb 7.54513 -55.7783
lclavicle -8.24956e-015 -4.77083e-015
lhumerus -14.4891 -1.14272 89.4162
lradius 17.4827
lwrist 11.4954
lhand -25.0963 -6.94722
lfingers 7.12502
lthumb 1.4186 23.0278
rfemur -32.7081 -4.16677 19.1493
rtibia 28.9527
rfoot 15.171 -3.50855
rtoes 11.8729
lfemur -32.158 8.75977 -19.9206
ltibia 19.7123
lfoot 20.0213 -0.161729
ltoes -1.29833
326
root 0.651242 21.333 -6.56787 9.28632 -0.611351 -0.681762
lowerback 6.92081 -1.2982 -1.72789
upperback 4.30814 -1.8158 2.08871
thorax 0.691043 -0.968518 3.23382
lowerneck -9.69234 0.887409 -1.23399
upperneck 29.545 1.75749 -0.916701
head 11.1379 0.537112 0.0916025
rclavicle -1.46107e-014 7.55382e-015
rhumerus -22.5666 -14.1133 -82.0113
rradius 23.1368
rwrist 35.1018
rhand -18.7667 -25.9327
rfingers 7.12502
rthumb 7.5303 -55.7787
lclavicle -1.46107e-014 7.55382e-015
lhumerus -14.6512 -0.289849 89.2738
lradius 16.9538
lwrist 10.7428
lhand -24.8547 -6.87106
lfingers 7.12502
lthumb 1.65187 23.1023
rfemur -32.4344 -4.04619 19.017
rtibia 27.6438
rfoot 15.5625 -3.18888
rtoes 11.3507
lfemur -31.6804 8.82201 -19.9339
ltibia 18.9138
lfoot 20.4125 -0.171762
ltoes -1.6657
327
root 0.659633 21.1937 -6.40137 8.9944 -0.764825 -0.666256
lowerback 6.59351 -1.31918 -1.64479
upperback 4.35567 -1.83802 2.05598
thorax 0.918682 -0.981262 3.14409
lowerneck -9.50201 0.910365 -1.29017
upperneck 29.8504 1.80644 -0.932807
head 11.2172 0.547783 0.100571
rclavicle -1.56046e-014 -6.55989e-015
rhumerus -22.8244 -14.2607 -81.9096
rradius 22.7039
rwrist 35.6312
rhand -18.7827 -25.9472
rfingers 7.12502
rthumb 7.51493 -55.7937
lclavicle -1.56046e-014 -6.55989e-015
lhumerus -14.8123 0.662164 89.0934
lradius 16.4019
lwrist 9.89043
lhand -24.578 -6.76061
lfingers 7.12502
lthumb 1.91917 23.2105
rfemur -32.0498 -3.85707 18.8633
rtibia 26.4201
rfoot 15.973 -2.9249
rtoes 11.0703
lfemur -31.0777 8.89989 -19.9277
ltibia 18.232
lfoot 20.8746 -0.187458
ltoes -1.84792
328
root 0.667739 21.0412 -6.22955 8.6467 -0.909559 -0.652131
lowerback 6.23647 -1.34565 -1.55123
upperback 4.39695 -1.86741 2.02545
thorax 1.15665 -0.997156 3.05029
lowerneck -9.32025 0.932221 -1.36144
upperneck 30.203 1.8563 -0.943057
head 11.3169 0.557011 0.11451
rclavicle 8.54774e-015 -2.08724e-014
rhumerus -23.092 -14.3806 -81.797
rradius 22.2795
rwrist 36.1968
rhand -18.791 -25.9804
rfingers 7.12502
rthumb 7.5069 -55.8272
lclavicle 8.54774e-015 -2.08724e-014
lhumerus -14.9828 1.71188 88.8713
lradius 15.8478
lwrist 8.92126
lhand -24.2692 -6.61129
lfingers 7.12502
lthumb 2.21735 23.3569
rfemur -31.5617 -3.62171 18.6879
rtibia 25.327
rfoot 16.3782 -2.76997
rtoes 11.0786
lfemur -30.3527 8.99603 -19.9176
ltibia 17.6848
lfoot 21.4374 -0.200489
ltoes -1.81555
329
root 0.675024 20.8749 -6.05343 8.24225 -1.0479 -0.646822
lowerback 5.8652 -1.37132 -1.44307
upperback 4.4307 -1.8957 1.99576
thorax 1.3943 -1.01176 2.9487
lowerneck -9.14482 0.951259 -1.44081
upperneck 30.5842 1.89991 -0.937768
head 11.4297 0.563698 0.134901
rclavicle 6.55989e-015 -2.98177e-015
rhumerus -23.3759 -14.4934 -81.6727
rradius 21.8787
rwrist 36.7446
rhand -18.7905 -26.0194
rfingers 7.12502
rthumb 7.50736 -55.8661
lclavicle 6.55989e-015 -2.98177e-015
lhumerus -15.1648 2.83323 88.6022
lradius 15.3096
lwrist 7.83595
lhand -23.9271 -6.40288
lfingers 7.12502
lthumb 2.54775 23.5617
rfemur -30.9895 -3.35783 18.5169
rtibia 24.4057
rfoot 16.7735 -2.76011
rtoes 11.323
lfemur -29.5185 9.09663 -19.8855
ltibia 17.2913
lfoot 22.119 -0.182712
ltoes -1.54328
330
root 0.681174 20.6945 -5.87389 7.78272 -1.17894 -0.63848
lowerback 5.48973 -1.39409 -1.33695
upperback 4.45773 -1.92097 1.96392
thorax 1.62731 -1.02439 2.84581
lowerneck -8.98917 0.967876 -1.51734
upperneck 30.9795 1.93704 -0.921774
head 11.5528 0.568526 0.158182
rclavicle -2.00773e-014 1.80894e-014
rhumerus -23.6791 -14.618 -81.5345
rradius 21.5194
rwrist 37.2291
rhand -18.7853 -26.0602
rfingers 7.12502
rthumb 7.51235 -55.9068
lclavicle -2.00773e-014 1.80894e-014
lhumerus -15.3582 3.97717 88.2925
lradius 14.8089
lwrist 6.68386
lhand -23.5925 -6.18496
lfingers 7.12502
lthumb 2.87089 23.7755
rfemur -30.3536 -3.10296 18.3571
rtibia 23.691
rfoot 17.1674 -2.88511
rtoes 11.7714
lfemur -28.5898 9.19321 -19.8413
ltibia 17.0601
lfoot 22.9219 -0.147928
ltoes -0.989356
